<svg xmlns="http://www.w3.org/2000/svg" style="display: none;">
  
    <symbol id="icon-bird" viewBox="0 0 512 512">
      <path d="m346 472l-14-2 7-12c4-7 11-16 18-27 15-23 41-61 38-75-2-8-4-14-4-20l-10 8-5-13c0 0-3-9-3-23-30 32-73 51-120 51-42 0-81-16-111-43-1 10-3 17-3 18l-5 12-10-7c0 5-1 11-3 19-4 15 22 53 37 75 8 11 14 20 18 27l7 12-14 2c-3 1-6 1-9 1-10 0-19-3-28-7 33 28 75 44 121 44 45 0 87-16 119-42-5 2-11 3-17 3-3 0-6-1-9-1z m-179-10c-14-26-63-83-56-109 7-26 4-37 4-37l15 12c0 0 3-10 2-26-18-20-31-44-38-71-5-4-10-8-16-13 0 0-89 12-50 129 7-36 13-36 13-36 0 0-7 55 32 111 1-41 5-27 5-27 0 0 39 75 89 67z m270-246c-6 4-11 8-15 13-7 27-21 53-39 73-1 15 3 24 3 24l14-12c0 0-3 11 4 37 7 25-42 83-56 109 50 7 89-67 89-67 0 0 5-14 5 27 39-56 32-111 32-111 0 0 6 0 13 36 40-117-50-129-50-129z m-179 133c88 0 159-72 159-162 0-77-54-142-126-158 5-7 11-13 11-13l-25-2c0 0 8-6 16-13-52-8-99 38-99 38l0 0c-56 25-96 82-96 148 0 90 72 162 160 162z m65-216c11 0 21 10 21 21 0 11-10 21-21 21-11 0-21-10-21-21 0-11 10-21 21-21z m-105 89c0 0 9-15 40-15 30 0 39 15 39 15 5 4 6 11 3 17l-37 70c-3 5-8 5-11 0l-37-70c-3-6-2-13 3-17z m-26-89c11 0 21 10 21 21 0 11-10 21-21 21-11 0-20-10-20-21 0-11 9-21 20-21z"/>
    </symbol>
  
    <symbol id="icon-plane" viewBox="0 0 512 512">
      <path d="m168 285l1-4c19 4 33 7 43 11-2-5-3-9-3-14 0-2 0-3 1-5-60-6-119-11-179-14l-8-12c0-1 0-1-1-1 0 0 0 0 0 0l-1 0c0 0 0 0-1 0 0 1 0 1 0 1l4 13c0 0 0 0 0 1 21 2 40 4 58 6l-7 5c0 0-1 0-1 0-12 1-15 17-3 22 7 2 15-4 19-7 7-5 3-10-1-12 0 0 0 0 0 0l2-2 3-5c26 4 48 8 67 11l-3 6c-9 1-12 10-11 15 0 7 7 10 11 10 7 0 13-7 15-11 1-4 0-10-5-14z m-94 6c-4 0-7-4-7-8 0-4 3-7 7-7 4 0 7 3 7 7 0 4-3 8-7 8z m84 15c-4 0-8-4-8-8 0-5 4-8 8-8 5 0 8 3 8 8 0 4-3 8-8 8z m163-60l-39 3c-6-6-13-9-22-10l-3-44c0-1-1-1-1 0l-4 44c-8 1-16 4-22 10l-38-3c-1 0-1 2 0 2l33 7c-5 6-8 14-8 23 0 22 18 39 39 39 22 0 40-17 40-39 0-9-3-17-8-23l33-7c1 0 1-2 0-2z m-85 18l-1 2c0 1 0 2-1 2l0 1c-1 1-1 2-2 2l-1 0c0 0-1 0-2 0l-3 0c0 0-1-1 0-1l6-8c0 0 1 0 1 0l2 0c0 0 1 0 1 0 0 1 0 1 0 2z m17 5c0 0-1 1-1 1l-11-1c0 0-1 0-1-1l2-6c0 0 0 0 1 0l9 0c0 0 1 0 1 0z m18 0l-10 1c-1 0-1-1-1-1l0-7c0 0 0 0 1 0l9 0c0 0 1 0 1 0l1 6c0 1 0 1-1 1z m15 2l-3 0c-1 0-1 0-2 0l-1 0c0 0-1-1-1-1l-1-2c0 0-1-1-1-2l0-2c0-1 0-1 0-1 0-1 0-1 1-1l1 0c1 0 1 0 2 1l6 7c0 1 0 1-1 1z m206-25c-1 0-1 0-1 0l-1 0c0 0 0 0-1 0 0 0 0 0 0 1l-8 12c-60 3-119 8-178 14 0 2 0 3 0 5 0 5-1 9-2 13 10-3 24-6 42-10l0 5c-5 3-6 9-4 13 2 4 7 12 15 11 4 0 10-3 11-10 1-5-2-14-11-15l-3-6c19-3 41-7 67-10l3 5 2 1c0 0 0 0 0 0-4 2-8 8-1 12 4 4 12 9 19 7 12-5 9-21-3-22 0 0-1 0-1 0l-7-5c18-2 37-4 57-6 1 0 1 0 1-1l4-13c0 0 0 0 0-1z m-130 52c0 4-4 8-8 8-5 0-8-4-8-8 0-5 3-8 8-8 4 0 8 3 8 8z m83-15c0 4-3 8-7 8-4 0-7-4-7-8 0-4 3-7 7-7 4 0 7 3 7 7z"/>
    </symbol>
  
    <symbol id="icon-car" viewBox="0 0 512 512">
      <path d="m96 305c-2 0-4 1-4 3 0 3 2 4 4 4 2 0 4-1 4-4 0-2-2-3-4-3z m-5-8c0 0 1 0 1 0l0-13c-4 0-7 2-10 4z m5 18c-1 0-1 1-1 2 0 1 0 2 1 2 1 0 2-1 2-2 0-1-1-2-2-2z m4 5l0 13c4 0 8-2 11-4l-9-9c-1 0-1 0-2 0z m8-7c0 0 0 0 0 1l9 9c2-3 3-7 4-10z m-12-46c-23 0-41 19-41 41 0 23 18 42 41 42 23 0 41-19 41-42 0-22-18-41-41-41z m0 71c-16 0-29-13-29-30 0-16 13-29 29-29 16 0 30 13 30 29 0 17-14 30-30 30z m7-30c0 1 1 2 2 2 1 0 1-1 1-2 0 0 0-1-1-1-1 0-2 1-2 1z m-7-7c1 0 2 0 2-1 0-1-1-2-2-2-1 0-1 1-1 2 0 1 0 1 1 1z m15-13c-3-2-7-4-11-4l0 13c1 0 1 0 2 0z m-26 15l-9-9c-3 3-4 6-5 10l13 0c0 0 1-1 1-1z m-1 10l-13 0c1 3 2 7 5 10l9-9c0-1-1-1-1-1z m-2 16c3 2 6 4 10 4l0-13c0 0-1 0-1 0z m7-21c0 0 0-1-1-1-1 0-2 1-2 1 0 1 1 2 2 2 1 0 1-1 1-2z m19-4l13 0c-1-4-2-7-4-10l-9 9c0 0 0 1 0 1z m296-1c-2 0-4 1-4 3 0 2 2 4 4 4 2 0 4-2 4-4 0-2-2-3-4-3z m4 15l0 13c4 0 8-2 11-4l-10-9c0 0 0 0-1 0z m-4-5c-1 0-1 1-1 2 0 1 0 1 1 1 1 0 2 0 2-1 0-1-1-2-2-2z m77-24c2-12 0-14-9-32-2-5-8-8-13-11-25-13-87-22-91-22-13-12-34-36-62-55-5-4-23-5-23-5 0 0-151-5-187 3-4 1-6 1-8 2-1 0-8 8-9 9 0 1-3 3-3 5-6 7-13 14-18 23-2 3-3 7-5 10-2 4-9 6-10 13 0 3-4 2-4 6 2 1 2 1 4 2-3 10-5 28-5 30 0 0 0 0 0 0 0 0 0 0 0 0-9 3-8 18-9 15 1 4 4 10 5 14 1 4-2 6-2 10 1 0 1 4 2 5 2 6 19 11 19 11l2 0c-1-4-2-9-2-14 0-24 19-43 43-43 24 0 44 19 44 43 0 5-1 10-3 14l227 1c-2-5-3-11-3-17 0-24 19-43 43-43 24 0 43 19 43 43 0 6-1 12-3 17l4 0c0 0 26 2 30-6 1-2 2-10 2-15 0-4 1-3 2-7 1-2-2-5-1-6z m-303-72c-1 0-1 1-2 1-3 3-36-1-81-1 1 1-5 0 0-10 6-14 16-24 15-24 14-2 49-1 68-1 0 11 0 17 0 35z m134 10c-1-1-3-2-4-3 0-1 1-3 0-5-2-4-8-7-15-7-1 2-4 2-5 5 0 0-1 7-1 7 0 1 0 1 1 2 1 0 0 0 0 0 0 0 0 0 0 0-4 0-21 0-90-3-2-37-4-38 0-44 41 0 84 0 84 0 0 0 30 37 39 49-1 1-7 0-9-1z m29-3c-15-12-35-38-45-46-3 0 8 0 14-1 17 15 35 29 51 47-7 0-14 5-20 0z m63 41c-23 0-41 19-41 41 0 23 18 42 41 42 23 0 41-19 41-42 0-22-18-41-41-41z m0 71c-16 0-29-13-29-30 0-16 13-29 29-29 16 0 30 13 30 29 0 17-14 30-30 30z m12-24l9 9c2-3 3-7 4-10l-13 0c0 0 0 0 0 1z m0-10l13 0c-1-4-2-7-4-10l-9 9c0 0 0 1 0 1z m-17-7c0 0 0 0 1-1l0-13c-4 1-7 3-10 5z m-2 11c0-1-1-1-1-1-1 0-2 0-2 1 0 1 1 2 2 2 0 0 1-1 1-2z m7-7c1 0 2 0 2-1 0-1-1-2-2-2-1 0-1 1-1 2 0 1 0 1 1 1z m15-13c-3-2-7-4-11-5l0 13c1 1 1 1 1 1z m-8 20c0 1 1 2 2 2 1 0 1-1 1-2 0-1 0-1-1-1-1 0-2 0-2 1z m-18-5l-9-9c-3 3-4 6-5 10l13 0c0 0 1-1 1-1z m-3 26c3 2 6 4 10 4l0-13c-1 0-1 0-1 0z m2-16l-13 0c1 3 2 7 5 10l9-9c0-1-1-1-1-1z"/>
    </symbol>
  
</svg>
